<svg id="Ebene_1" data-name="Ebene 1" xmlns="http://www.w3.org/2000/svg" width="400" height="400" viewBox="0 0 400 400">
  <defs>
    <style>
      .cls-1 {
        fill: #c9dad5;
      }

      .cls-2 {
        fill: #d6e3df;
      }

      .cls-3 {
        fill: #e8efed;
      }

      .cls-4 {
        fill: #fff;
      }

      .cls-5 {
        fill: #005039;
      }

      .cls-6 {
        fill: #e8b000;
      }
    </style>
  </defs>
  <title>Zeichenfläche 1</title>
  <g>
    <polyline class="cls-1" points="221.1 224.18 283.59 152.86 329.53 246.87 331.73 251.52 343.1 251.52 289.62 136.28 123.47 167.47 56.9 242.48 56.9 246.61 221.1 224.18"/>
    <g>
      <path class="cls-2" d="M77.91,247.17V321.9l145.15,3.51V227.74Zm47.84,41.3L105.4,289V264l20.35-1.54Zm19-27.79,24.91-2.34v61l-24.91-.47Zm51,59.11-24.91-.48v-61h-.58l25.49-2.39Z"/>
      <path class="cls-3" d="M283.59,158l-60.53,69.76v97.67l105.74-3.88V251.25ZM287.16,318l-17.25.22V262.43l17.25,2.71Zm0-92.63-17.25-2.62V194l17.25,6.2Z"/>
    </g>
    <polygon class="cls-4" points="128.57 174.4 73.5 236.79 213.3 215.8 273.96 147.83 128.57 174.4"/>
    <polygon class="cls-5" points="132.23 176.88 117.64 193.2 145.01 188.43 159.67 171.97 132.23 176.88"/>
    <polygon class="cls-5" points="114.76 196.52 100.03 213.13 127.11 208.72 141.91 191.9 114.76 196.52"/>
    <polygon class="cls-5" points="97.06 216.31 82.55 232.77 109.05 228.87 123.93 212.05 97.06 216.31"/>
    <polygon class="cls-5" points="115.33 227.93 130.28 211.03 157.15 206.77 141.55 224.1 115.33 227.93"/>
    <polygon class="cls-5" points="164.15 205.47 148.77 222.73 175.27 218.76 191.01 201.36 164.15 205.47"/>
    <polygon class="cls-5" points="148.19 190.89 133.39 207.57 160.25 203.24 175.49 186.12 148.19 190.89"/>
    <polygon class="cls-5" points="182.63 184.82 167.33 202.15 194.19 197.68 209.79 180.2 182.63 184.82"/>
    <polygon class="cls-5" points="166.03 170.67 151.3 187.49 178.74 182.73 193.54 165.76 166.03 170.67"/>
    <polygon class="cls-5" points="200.91 164.39 185.67 181.43 213.11 176.66 228.42 159.4 200.91 164.39"/>
    <polygon class="cls-5" points="235.85 157.96 220.4 175.29 247.55 170.52 263.3 152.98 235.85 157.96"/>
    <polygon class="cls-5" points="217.15 178.76 201.48 196.45 228.34 192.04 244.38 174.06 217.15 178.76"/>
    <polygon class="cls-5" points="198.23 200.06 182.49 217.61 208.99 213.71 224.95 195.8 198.23 200.06"/>
  </g>
  <g>
    <circle class="cls-6" cx="66.32" cy="108.72" r="12.59"/>
    <path class="cls-6" d="M66.45,155.88a1.21,1.21,0,0,1-1.21-1.21V125.46a1.21,1.21,0,0,1,2.42,0v29.21A1.21,1.21,0,0,1,66.45,155.88Z"/>
    <path class="cls-6" d="M66.45,92.61a1.21,1.21,0,0,1-1.21-1.21V62.19a1.21,1.21,0,1,1,2.42,0V91.4A1.21,1.21,0,0,1,66.45,92.61Z"/>
    <path class="cls-6" d="M49.42,109.64H20.21a1.21,1.21,0,1,1,0-2.42H49.42a1.21,1.21,0,0,1,0,2.42Z"/>
    <path class="cls-6" d="M112.69,109.64H83.48a1.21,1.21,0,0,1,0-2.42h29.21a1.21,1.21,0,1,1,0,2.42Z"/>
    <path class="cls-6" d="M99.15,142.34a1.21,1.21,0,0,1-.86-.36L77.64,121.33a1.21,1.21,0,0,1,0-1.71,1.2,1.2,0,0,1,1.71,0L100,140.27a1.2,1.2,0,0,1,0,1.71A1.17,1.17,0,0,1,99.15,142.34Z"/>
    <path class="cls-6" d="M54.41,97.6a1.17,1.17,0,0,1-.85-.36L32.9,76.59a1.21,1.21,0,1,1,1.71-1.71L55.26,95.53a1.2,1.2,0,0,1,0,1.71A1.17,1.17,0,0,1,54.41,97.6Z"/>
    <path class="cls-6" d="M33.75,142.34a1.17,1.17,0,0,1-.85-.36,1.21,1.21,0,0,1,0-1.71l20.66-20.65a1.21,1.21,0,1,1,1.7,1.71L34.61,142A1.21,1.21,0,0,1,33.75,142.34Z"/>
    <path class="cls-6" d="M78.49,97.6a1.17,1.17,0,0,1-.85-.36,1.21,1.21,0,0,1,0-1.71L98.29,74.88a1.21,1.21,0,0,1,1.71,0,1.2,1.2,0,0,1,0,1.71L79.35,97.24A1.21,1.21,0,0,1,78.49,97.6Z"/>
  </g>
</svg>
